<!-- Generated by IcoMoon.io -->
<svg version="1.1" xmlns="http://www.w3.org/2000/svg" width="32" height="32" viewBox="0 0 32 32">
<title>gplus</title>
<path d="M10 6.8c-1.6 0-2.6 1.6-2.4 3.6 0.2 2.2 1.8 3.8 3.4 4 1.6 0 2.6-1.6 2.4-3.8-0.2-2-1.8-3.8-3.4-3.8v0z"></path>
<path d="M10.8 18.6c-2.4 0-4.6 1.4-4.6 3.2s1.8 3.4 4.2 3.4c3.4 0 4.6-1.4 4.6-3.2v-0.6c-0.2-1-1.2-1.6-2.6-2.4-0.4-0.4-1-0.4-1.6-0.4v0z"></path>
<path d="M0 0v32h32v-32h-32zM15.8 10.6c0 1.4-0.8 2.4-1.8 3.2s-1.2 1.2-1.2 1.8c0 0.6 1 1.6 1.6 2 1.6 1.2 2.2 2.2 2.2 4 0 2.2-2.2 4.6-6.2 4.6-3.4 0-6.4-1.4-6.4-3.6 0-2.4 2.6-4.6 6.2-4.6h1c-0.4-0.6-0.8-1.2-0.8-1.8 0-0.4 0.2-0.8 0.4-1.2h-0.6c-2.8 0-4.8-2-4.8-4.6 0-2.4 2.6-4.6 5.4-4.6h6.2l-1.4 1.2h-2c1.4 0.4 2.2 2 2.2 3.6zM28 11h-4.2v4h-1v-4h-4v-1h4v-4h1v4h4.2v1z"></path>
</svg>
