<!-- Generated by IcoMoon.io -->
<svg version="1.1" xmlns="http://www.w3.org/2000/svg" width="32" height="32" viewBox="0 0 32 32">
<title>instagram</title>
<path d="M28.73 22.428c0 3.481-2.822 6.303-6.303 6.303h-12.911c-3.481 0-6.303-2.822-6.303-6.303v-12.911c0-3.481 2.822-6.303 6.303-6.303h12.911c3.481 0 6.303 2.822 6.303 6.303v12.911zM22.428 0h-12.911c-5.247 0-9.516 4.269-9.516 9.516v12.911c0 5.247 4.269 9.516 9.516 9.516h12.911c5.247 0 9.516-4.269 9.516-9.516v-12.911c-0-5.247-4.269-9.516-9.516-9.516v0z"></path>
<path d="M15.972 21.020c-2.788 0-5.048-2.26-5.048-5.048s2.26-5.048 5.048-5.048c2.788 0 5.048 2.26 5.048 5.048s-2.26 5.048-5.048 5.048zM15.972 7.71c-4.556 0-8.262 3.706-8.262 8.262s3.706 8.262 8.262 8.262c4.556 0 8.262-3.706 8.262-8.262s-3.706-8.262-8.262-8.262z"></path>
<path d="M26.229 7.772c0 1.093-0.886 1.98-1.98 1.98s-1.98-0.886-1.98-1.98c0-1.093 0.886-1.98 1.98-1.98s1.98 0.886 1.98 1.98z"></path>
</svg>
