<?xml version="1.0" encoding="UTF-8"?>
<svg width="176px" height="37px" viewBox="0 0 176 37" version="1.1" xmlns="http://www.w3.org/2000/svg" xmlns:xlink="http://www.w3.org/1999/xlink">
    <!-- Generator: Sketch 42 (36781) - http://www.bohemiancoding.com/sketch -->
    <title>logo-footer</title>
    <desc>Created with Sketch.</desc>
    <defs>
        <polygon id="path-1" points="3.35949969e-20 0.10764507 3.35949969e-20 21.067138 19.6200338 21.067138 19.6200338 0.10764507 0 0.10764507"></polygon>
        <polygon id="path-3" points="16.4002254 0.56251831 16.4002254 27.887138 0.130264789 27.887138 0.130264789 0.56251831"></polygon>
    </defs>
    <g id="Symbols" stroke="none" stroke-width="1" fill="none" fill-rule="evenodd">
        <g id="logo-footer">
            <g id="Logo">
                <polygon id="Fill-1" fill="#808080" points="119.420772 0.619966197 99.2724901 7.67607887 98.4761521 10.6947268 118.629392 3.60762817"></polygon>
                <g id="Group-22" transform="translate(0.000000, 0.421223)">
                    <g id="Group-4" transform="translate(0.000000, 13.633803)">
                        <mask id="mask-2" fill="white">
                            <use xlink:href="#path-1"></use>
                        </mask>
                        <g id="Clip-3"></g>
                        <path d="M8.85304789,0.537729577 L8.85304789,4.55722254 L8.94848451,4.55722254 C9.52296338,3.34567324 10.2963718,2.30144789 11.2699493,1.42330704 C12.2422873,0.546405634 13.5263437,0.10764507 15.1221183,0.10764507 C16.4619493,0.10764507 17.5458366,0.465842254 18.3762592,1.18409577 C19.2048225,1.9023493 19.6200338,2.89947606 19.6200338,4.17547606 C19.6200338,5.13294085 19.3888789,5.8828 18.926569,6.42505352 C18.4636394,6.96730704 17.7224563,7.23812394 16.7011606,7.23812394 C15.9667944,7.23812394 15.2962592,7.08629296 14.6907944,6.7832507 C14.0847099,6.48082817 13.7822873,5.91440563 13.7822873,5.0839831 C13.7822873,4.98854648 13.7977803,4.82122254 13.8293859,4.58139155 C13.8609915,4.3428 13.9012732,4.08809577 13.9496113,3.81603944 C13.9979493,3.54584225 14.0363718,3.29795493 14.0692169,3.07485634 C14.1008225,2.85175775 14.1175549,2.72409577 14.1175549,2.6912507 C14.0847099,2.43654648 14.0363718,2.2376169 13.9737803,2.09322254 C13.9087099,1.95006761 13.8058366,1.82302535 13.6626817,1.71085634 C13.518907,1.59930704 13.3038648,1.54353239 13.0163155,1.54353239 C12.6965408,1.54353239 12.298062,1.69536338 11.8196394,1.9971662 C11.3418366,2.30144789 10.8944,2.73958873 10.4804282,3.31344789 C10.0652169,3.88792676 9.70578028,4.58139155 9.40397746,5.39570141 C9.09969577,6.20877183 8.94848451,7.12657465 8.94848451,8.14663099 L8.94848451,20.3972225 L12.7293859,20.3972225 L12.7293859,21.067138 L-0.000247887324,21.067138 L-0.000247887324,20.3972225 L3.11011831,20.3972225 L3.11011831,1.20826479 L-0.000247887324,1.20826479 L-0.000247887324,0.537729577 L8.85304789,0.537729577 Z" id="Fill-2" fill="#808080" mask="url(#mask-2)"></path>
                    </g>
                    <path d="M34.4061408,14.1715324 L34.4061408,29.3416169 C34.4061408,30.5544056 34.6453521,31.5837577 35.1237746,32.4284338 C35.6028169,33.274969 36.4481127,33.6963775 37.6602817,33.6963775 C38.3934085,33.6963775 39.0645634,33.5216169 39.6706479,33.1696169 C40.2761127,32.8194761 40.7954366,32.3497296 41.2255211,31.7585183 C41.6562254,31.1685465 41.991493,30.474462 42.2300845,29.6768845 C42.4699155,28.879307 42.5901408,28.0501239 42.5901408,27.1880958 L42.5901408,14.8420676 L39.4308169,14.8420676 L39.4308169,14.1715324 L48.4278873,14.1715324 L48.4278873,34.0310254 L51.5859718,34.0310254 L51.5859718,34.7009408 L42.6849577,34.7009408 L42.6849577,30.8258423 L42.5901408,30.8258423 C42.3335775,31.5273634 41.9512113,32.1415042 41.4405634,32.6676451 C40.9299155,33.1937859 40.3473803,33.6412225 39.6941972,34.0074761 C39.0403944,34.374969 38.3463099,34.6464056 37.6131831,34.8205465 C36.8781972,34.9959268 36.1605634,35.0845465 35.4584225,35.0845465 C33.2255775,35.0845465 31.519493,34.5980676 30.3383099,33.6251099 C29.1583662,32.6515324 28.5683944,31.0006028 28.5683944,28.6717014 L28.5683944,14.8420676 L25.3619718,14.8420676 L25.3619718,14.1715324 L34.4061408,14.1715324 Z" id="Fill-5" fill="#808080"></path>
                    <polygon id="Fill-7" fill="#808080" points="68.8610535 0.198495775 68.8610535 34.0307775 72.0674761 34.0307775 72.0674761 34.700693 59.8168845 34.700693 59.8168845 34.0307775 63.0226873 34.0307775 63.0226873 0.868411268 59.8168845 0.868411268 59.8168845 0.198495775"></polygon>
                    <polygon id="Fill-9" fill="#808080" points="88.7192451 0.198495775 88.7192451 34.0307775 91.9250479 34.0307775 91.9250479 34.700693 79.6750761 34.700693 79.6750761 34.0307775 82.8808789 34.0307775 82.8808789 0.868411268 79.6750761 0.868411268 79.6750761 0.198495775"></polygon>
                    <path d="M115.588682,27.7626366 C115.508738,28.9425803 115.277583,30.0512563 114.895217,31.0880451 C114.51347,32.1254535 113.946428,32.9874817 113.197189,33.6722704 C112.44609,34.359538 111.401865,34.7003831 110.062034,34.7003831 C109.16902,34.7003831 108.458823,34.4624113 107.932682,33.9839887 C107.405921,33.5055662 107.006203,32.819538 106.736625,31.9265239 C106.463949,31.0322704 106.289189,29.9564394 106.209865,28.6965521 C106.129301,27.4360451 106.089639,26.0230873 106.089639,24.4607775 C106.089639,22.5464676 106.161527,20.9277634 106.305921,19.6040451 C106.449076,18.279707 106.695724,17.2187493 107.047104,16.4211718 C107.397245,15.6248338 107.844062,15.0503549 108.386935,14.6977352 C108.928569,14.3482141 109.614597,14.1715944 110.4444,14.1715944 C111.624963,14.1715944 112.565076,14.5074817 113.267837,15.1773972 C113.969977,15.846693 114.495499,16.6932282 114.847499,17.7132845 C115.197639,18.7345803 115.428175,19.850693 115.540963,21.0622423 C115.653132,22.2756507 115.708907,23.4078761 115.708907,24.4607775 C115.708907,25.4808338 115.668625,26.5833127 115.588682,27.7626366 L115.588682,27.7626366 Z M126.427555,30.2030873 C126.172231,31.3842704 125.765696,32.3801577 125.207949,33.1944676 C124.648963,34.007538 123.987104,34.4140732 123.221752,34.4140732 C122.392569,34.4140732 121.90547,34.1438761 121.762315,33.6010028 C121.618541,33.0587493 121.546654,32.3888338 121.546654,31.5912563 L121.546654,14.1715944 L115.804963,14.1715944 L115.804963,17.7132845 L115.708907,17.7132845 C114.720456,14.9059606 112.838372,13.5022986 110.062034,13.5022986 C108.212175,13.5022986 106.631893,13.8611155 105.324907,14.579369 C104.015442,15.2963831 102.938372,16.198693 102.094935,17.2825803 C101.2484,18.367707 100.626823,19.5482704 100.228344,20.8242704 C99.8280056,22.099031 99.6296958,23.2963268 99.6296958,24.4136789 C99.6296958,25.8489465 99.8844,27.2203831 100.395048,28.527369 C100.906315,29.8368338 101.615893,30.9932282 102.52502,31.9977915 C103.434766,33.0023549 104.52609,33.8086085 105.80333,34.4140732 C107.07933,35.0201577 108.499104,35.3232 110.062034,35.3232 C111.528287,35.3232 112.70947,34.9241014 113.603104,34.1277634 C114.495499,33.3295662 115.164794,32.3727211 115.612231,31.2566085 L115.708907,31.2566085 C115.804963,31.7666366 115.962992,32.2686085 116.18733,32.7625239 C116.409808,33.2576789 116.768625,33.6958197 117.263161,34.0788056 C117.758315,34.4624113 118.413358,34.7654535 119.226428,34.9885521 C120.040118,35.2116507 121.068231,35.3232 122.313245,35.3232 C123.491949,35.3232 124.45809,34.9885521 125.207949,34.3186366 C125.957189,33.6493408 126.602935,32.3243831 127.145808,30.346862 L126.427555,30.2030873 Z" id="Fill-11" fill="#808080"></path>
                    <path d="M142.554299,14.1715324 L142.554299,18.1910254 L142.649735,18.1910254 C143.224214,16.9794761 143.997623,15.9352507 144.97058,15.0571099 C145.943538,14.1802085 147.227594,13.7414479 148.823369,13.7414479 C150.16258,13.7414479 151.247087,14.0996451 152.07751,14.8178986 C152.906073,15.5361521 153.321285,16.5332789 153.321285,17.8092789 C153.321285,18.7667437 153.09013,19.5166028 152.6272,20.0588563 C152.16489,20.6011099 151.424327,20.8719268 150.402411,20.8719268 C149.668045,20.8719268 148.99751,20.7200958 148.392045,20.4170535 C147.785961,20.114631 147.483538,19.5482085 147.483538,18.7177859 C147.483538,18.6223493 147.499031,18.4550254 147.530017,18.2151944 C147.562242,17.9766028 147.602524,17.7218986 147.651482,17.4498423 C147.69858,17.1796451 147.737623,16.9317577 147.770468,16.7086592 C147.801454,16.4855606 147.818806,16.3578986 147.818806,16.3250535 C147.785961,16.0703493 147.737623,15.8714197 147.675651,15.7270254 C147.609961,15.5838704 147.507087,15.4568282 147.363932,15.3446592 C147.220158,15.2331099 147.005735,15.1773352 146.717566,15.1773352 C146.397792,15.1773352 145.999932,15.3291662 145.52089,15.630969 C145.043707,15.9352507 144.595651,16.3733915 144.181059,16.9472507 C143.765848,17.5217296 143.407031,18.2151944 143.105848,19.0295042 C142.800946,19.8425746 142.649735,20.7603775 142.649735,21.7804338 L142.649735,34.0310254 L146.430637,34.0310254 L146.430637,34.7009408 L133.701003,34.7009408 L133.701003,34.0310254 L136.811369,34.0310254 L136.811369,14.8420676 L133.701003,14.8420676 L133.701003,14.1715324 L142.554299,14.1715324 Z" id="Fill-13" fill="#808080"></path>
                    <g id="Group-17" transform="translate(159.267606, 7.436620)">
                        <mask id="mask-4" fill="white">
                            <use xlink:href="#path-3"></use>
                        </mask>
                        <g id="Clip-16"></g>
                        <path d="M9.17505352,0.56251831 L9.17505352,6.73491268 L14.7742085,6.73491268 L14.7742085,7.40544789 L9.17505352,7.40544789 L9.17505352,23.4369408 C9.17505352,23.9147437 9.20665915,24.3621803 9.27049014,24.7755324 C9.33432113,25.1907437 9.45330704,25.5656732 9.62930704,25.9009408 C9.80592676,26.2355887 10.060631,26.498969 10.3952789,26.6910817 C10.7305465,26.8819549 11.1680676,26.9780113 11.7115606,26.9780113 C12.3164056,26.9780113 12.8363493,26.8503493 13.2670535,26.5944056 C13.697138,26.3403211 14.0714479,26.0124901 14.3906028,25.6140113 C14.7103775,25.2149127 14.9725183,24.7606592 15.1801239,24.250631 C15.3877296,23.7399831 15.5550535,23.2448282 15.6833352,22.7670254 L16.4003493,22.9101803 C16.2107155,23.995307 15.8816451,24.8647718 15.4199549,25.5185746 C14.9570254,26.1723775 14.4302648,26.674969 13.8409127,27.0257296 C13.2497014,27.3758704 12.621307,27.6076451 11.9507718,27.7191944 C11.2796169,27.8307437 10.641307,27.887138 10.0370817,27.887138 C8.37747606,27.887138 7.09341972,27.6950254 6.18429296,27.3132789 C5.2751662,26.9296732 4.6052507,26.4512507 4.17454648,25.8767718 C3.74322254,25.302293 3.49595493,24.6800958 3.43212394,24.0101803 C3.36829296,23.3408845 3.33730704,22.7180676 3.33730704,22.1442085 L3.33730704,7.40544789 L0.130264789,7.40544789 L0.130264789,6.73491268 L3.33730704,6.73491268 L3.33730704,0.56251831" id="Fill-15" fill="#808080" mask="url(#mask-4)"></path>
                    </g>
                    <polygon id="Fill-18" fill="#808080" points="33.6290761 8.67667606 29.3902028 4.43780282 33.6290761 0.198309859 37.868569 4.43780282"></polygon>
                    <polygon id="Fill-20" fill="#808080" points="42.1072563 8.67667606 37.8683831 4.43780282 42.1072563 0.198309859 46.3461296 4.43780282"></polygon>
                </g>
            </g>
        </g>
    </g>
</svg>