<!-- Generated by IcoMoon.io -->
<svg version="1.1" xmlns="http://www.w3.org/2000/svg" width="29" height="32" viewBox="0 0 29 32">
<title>person</title>
<path d="M27.429 29.719c0 1.26-1.021 2.281-2.281 2.281h-22.859c-0.607 0.001-1.189-0.24-1.619-0.669s-0.67-1.012-0.669-1.619v-2.283c0-6.018 9.143-9.143 9.143-9.143s0.523-0.935 0-2.286c-1.922-1.417-2.158-3.634-2.286-9.143 0.395-5.515 4.267-6.857 6.857-6.857s6.462 1.339 6.857 6.857c-0.128 5.509-0.363 7.726-2.286 9.143-0.523 1.349 0 2.286 0 2.286s9.143 3.125 9.143 9.143v2.29z"></path>
</svg>
