<?xml version="1.0" encoding="UTF-8"?>
<svg width="216px" height="44px" viewBox="0 0 216 44" version="1.1" xmlns="http://www.w3.org/2000/svg" xmlns:xlink="http://www.w3.org/1999/xlink">
    <!-- Generator: Sketch 42 (36781) - http://www.bohemiancoding.com/sketch -->
    <title>rullart-logo</title>
    <desc>Created with Sketch.</desc>
    <defs>
        <polygon id="path-1" points="4.112491e-20 0.131772414 4.112491e-20 25.7890828 24.0176276 25.7890828 24.0176276 0.131772414 0 0.131772414"></polygon>
        <polygon id="path-3" points="20.0761379 0.6886 20.0761379 34.1377034 0.159462069 34.1377034 0.159462069 0.6886"></polygon>
    </defs>
    <g id="Symbols" stroke="none" stroke-width="1" fill="none" fill-rule="evenodd">
        <g id="rullart-logo">
            <g id="Logo">
                <polygon id="Fill-1" fill="#E1BEBE" points="146.187497 0.758924138 121.523221 9.39657931 120.548393 13.0918207 145.218738 4.41623448"></polygon>
                <g id="Group-22" transform="translate(0.000000, 0.515634)">
                    <g id="Group-4" transform="translate(0.000000, 16.689655)">
                        <mask id="mask-2" fill="white">
                            <use xlink:href="#path-1"></use>
                        </mask>
                        <g id="Clip-3"></g>
                        <path d="M10.8373517,0.658255172 L10.8373517,5.57866897 L10.9541793,5.57866897 C11.6574207,4.09556552 12.6041793,2.81728966 13.7959724,1.74232414 C14.9862483,0.668875862 16.5581103,0.131772414 18.5115586,0.131772414 C20.1516966,0.131772414 21.4785241,0.570255172 22.4950759,1.44949655 C23.5093517,2.32873793 24.0176276,3.54935862 24.0176276,5.11135862 C24.0176276,6.28342759 23.7346621,7.20135862 23.168731,7.86515172 C22.6020414,8.52894483 21.694731,8.86046207 20.4445241,8.86046207 C19.5455586,8.86046207 18.724731,8.6746 17.9835586,8.30363448 C17.2416276,7.93342759 16.8714207,7.24004828 16.8714207,6.22349655 C16.8714207,6.10666897 16.8903862,5.90184138 16.9290759,5.60825517 C16.9677655,5.31618621 17.0170759,5.0043931 17.0762483,4.67135862 C17.1354207,4.3406 17.1824552,4.03715172 17.2226621,3.76404828 C17.2613517,3.49094483 17.2818345,3.33466897 17.2818345,3.29446207 C17.2416276,2.98266897 17.1824552,2.73915172 17.1058345,2.5623931 C17.0261793,2.38715172 16.9002483,2.23163448 16.7250069,2.09432414 C16.5490069,1.95777241 16.2857655,1.88949655 15.9337655,1.88949655 C15.5423172,1.88949655 15.0545241,2.07535862 14.468869,2.4448069 C13.8839724,2.81728966 13.3362483,3.35363448 12.8294897,4.05611724 C12.3212138,4.75935862 11.8812138,5.60825517 11.5117655,6.60508276 C11.1392828,7.6003931 10.9541793,8.72391034 10.9541793,9.9726 L10.9541793,24.9690138 L15.5825241,24.9690138 L15.5825241,25.7890828 L-0.000303448276,25.7890828 L-0.000303448276,24.9690138 L3.80721379,24.9690138 L3.80721379,1.47908276 L-0.000303448276,1.47908276 L-0.000303448276,0.658255172 L10.8373517,0.658255172 Z" id="Fill-2" fill="#808080" mask="url(#mask-2)"></path>
                    </g>
                    <path d="M42.1178621,17.3479103 L42.1178621,35.9181862 C42.1178621,37.4028069 42.4106897,38.6628759 42.9963448,39.6968759 C43.5827586,40.7331517 44.6175172,41.2490138 46.1013793,41.2490138 C46.9988276,41.2490138 47.8204138,41.0350828 48.5623448,40.6041862 C49.3035172,40.1755655 49.9392414,39.600531 50.4657241,38.8768069 C50.9929655,38.1546 51.4033793,37.3049448 51.6954483,36.3286 C51.9890345,35.3522552 52.1362069,34.3372207 52.1362069,33.2819793 L52.1362069,18.1687379 L48.2687586,18.1687379 L48.2687586,17.3479103 L59.2824138,17.3479103 L59.2824138,41.658669 L63.1483448,41.658669 L63.1483448,42.4787379 L52.2522759,42.4787379 L52.2522759,37.7350828 L52.1362069,37.7350828 C51.8221379,38.5938414 51.354069,39.3456345 50.7289655,39.9897034 C50.1038621,40.6337724 49.3907586,41.1814966 48.5911724,41.6298414 C47.7908276,42.0797034 46.9411724,42.4119793 46.0437241,42.6251517 C45.144,42.8398414 44.2655172,42.9483241 43.406,42.9483241 C40.6726897,42.9483241 38.5842069,42.3528069 37.1382759,41.1617724 C35.6938621,39.9699793 34.9716552,37.9490138 34.9716552,35.0981172 L34.9716552,18.1687379 L31.0465517,18.1687379 L31.0465517,17.3479103 L42.1178621,17.3479103 Z" id="Fill-5" fill="#808080"></path>
                    <polygon id="Fill-7" fill="#808080" points="84.2954276 0.242986207 84.2954276 41.6583655 88.220531 41.6583655 88.220531 42.4784345 73.2241172 42.4784345 73.2241172 41.6583655 77.1484621 41.6583655 77.1484621 1.06305517 73.2241172 1.06305517 73.2241172 0.242986207"></polygon>
                    <polygon id="Fill-9" fill="#808080" points="108.604593 0.242986207 108.604593 41.6583655 112.528938 41.6583655 112.528938 42.4784345 97.5332828 42.4784345 97.5332828 41.6583655 101.457628 41.6583655 101.457628 1.06305517 97.5332828 1.06305517 97.5332828 0.242986207"></polygon>
                    <path d="M141.49649,33.9852966 C141.398628,35.4297103 141.115662,36.7868828 140.647593,38.0560552 C140.180283,39.3259862 139.486145,40.3812276 138.568972,41.2195034 C137.649524,42.0608138 136.371248,42.4780552 134.73111,42.4780552 C133.637938,42.4780552 132.768559,42.1867448 132.12449,41.6010897 C131.479662,41.0154345 130.990352,40.1756414 130.660352,39.082469 C130.326559,37.9877793 130.112628,36.6708138 130.015524,35.1285379 C129.916903,33.5855034 129.868352,31.8558483 129.868352,29.9433655 C129.868352,27.5999862 129.956352,25.618469 130.13311,23.9980552 C130.308352,22.3768828 130.610283,21.0781241 131.040421,20.1017793 C131.469041,19.1269517 132.016007,18.4237103 132.680559,17.9920552 C133.343593,17.5641931 134.183386,17.3479862 135.199179,17.3479862 C136.644352,17.3479862 137.795179,17.7591586 138.655455,18.5792276 C139.514972,19.3985379 140.158283,20.4348138 140.589179,21.6835034 C141.0178,22.9337103 141.300007,24.2999862 141.438076,25.7830897 C141.575386,27.268469 141.643662,28.654469 141.643662,29.9433655 C141.643662,31.1920552 141.594352,32.5416414 141.49649,33.9852966 L141.49649,33.9852966 Z M154.764766,36.9727448 C154.452214,38.4186759 153.954559,39.6377793 153.2718,40.6346069 C152.587524,41.6299172 151.777317,42.1275724 150.840421,42.1275724 C149.825386,42.1275724 149.22911,41.7968138 149.053869,41.1322621 C148.877869,40.468469 148.789869,39.6484 148.789869,38.6720552 L148.789869,17.3479862 L141.761248,17.3479862 L141.761248,21.6835034 L141.643662,21.6835034 C140.433662,18.2469517 138.129731,16.5286759 134.73111,16.5286759 C132.466628,16.5286759 130.532145,16.9679172 128.932214,17.8471586 C127.329248,18.7248828 126.010766,19.8294345 124.978283,21.1562621 C123.942007,22.4846069 123.18111,23.9297793 122.693317,25.4917793 C122.203248,27.0522621 121.96049,28.5179172 121.96049,29.8857103 C121.96049,31.6426759 122.272283,33.3215034 122.897386,34.9214345 C123.523248,36.5244 124.391869,37.9399862 125.504766,39.1697103 C126.618421,40.3994345 127.954352,41.3864 129.517869,42.1275724 C131.079869,42.8695034 132.817869,43.240469 134.73111,43.240469 C136.526007,43.240469 137.971938,42.7519172 139.065869,41.7770897 C140.158283,40.7999862 140.977593,39.6286759 141.525317,38.2624 L141.643662,38.2624 C141.761248,38.8867448 141.954697,39.5012276 142.229317,40.1058483 C142.501662,40.7119862 142.940903,41.248331 143.546283,41.7171586 C144.152421,42.1867448 144.954283,42.5577103 145.949593,42.8308138 C146.945662,43.1039172 148.204214,43.240469 149.728283,43.240469 C151.171179,43.240469 152.353869,42.8308138 153.2718,42.0107448 C154.188972,41.1914345 154.979455,39.5695034 155.644007,37.1487448 L154.764766,36.9727448 Z" id="Fill-11" fill="#808080"></path>
                    <path d="M174.506124,17.3479103 L174.506124,22.2683241 L174.622952,22.2683241 C175.326193,20.7852207 176.272952,19.5069448 177.463986,18.4319793 C178.655021,17.358531 180.226883,16.8214276 182.180331,16.8214276 C183.81971,16.8214276 185.147297,17.2599103 186.163848,18.1391517 C187.178124,19.0183931 187.6864,20.2390138 187.6864,21.8010138 C187.6864,22.9730828 187.403434,23.8910138 186.836745,24.5548069 C186.270814,25.2186 185.364262,25.5501172 184.113297,25.5501172 C183.214331,25.5501172 182.393503,25.3642552 181.652331,24.9932897 C180.9104,24.6230828 180.540193,23.9297034 180.540193,22.9131517 C180.540193,22.7963241 180.559159,22.5914966 180.59709,22.2979103 C180.636538,22.0058414 180.685848,21.6940483 180.745779,21.3610138 C180.803434,21.0302552 180.851228,20.7268069 180.891434,20.4537034 C180.929366,20.1806 180.950607,20.0243241 180.950607,19.9841172 C180.9104,19.6723241 180.851228,19.4288069 180.775366,19.2520483 C180.694952,19.0768069 180.569021,18.9212897 180.393779,18.7839793 C180.217779,18.6474276 179.955297,18.5791517 179.602538,18.5791517 C179.21109,18.5791517 178.724055,18.7650138 178.137641,19.1344621 C177.553503,19.5069448 177.005021,20.0432897 176.497503,20.7457724 C175.989228,21.4490138 175.549986,22.2979103 175.181297,23.2947379 C174.808055,24.2900483 174.622952,25.4135655 174.622952,26.6622552 L174.622952,41.658669 L179.251297,41.658669 L179.251297,42.4787379 L163.668469,42.4787379 L163.668469,41.658669 L167.475986,41.658669 L167.475986,18.1687379 L163.668469,18.1687379 L163.668469,17.3479103 L174.506124,17.3479103 Z" id="Fill-13" fill="#808080"></path>
                    <g id="Group-17" transform="translate(194.965517, 9.103448)">
                        <mask id="mask-4" fill="white">
                            <use xlink:href="#path-3"></use>
                        </mask>
                        <g id="Clip-16"></g>
                        <path d="M11.231531,0.6886 L11.231531,8.24446207 L18.085669,8.24446207 L18.085669,9.06528966 L11.231531,9.06528966 L11.231531,28.6900483 C11.231531,29.2749448 11.2702207,29.822669 11.3483586,30.328669 C11.4264966,30.8369448 11.5721517,31.2959103 11.7876,31.7063241 C12.0038069,32.1159793 12.3156,32.4383931 12.7252552,32.6735655 C13.135669,32.9072207 13.6712552,33.0248069 14.3365655,33.0248069 C15.0769793,33.0248069 15.7134621,32.868531 16.2407034,32.5552207 C16.7671862,32.2441862 17.2253931,31.8428759 17.6160828,31.3550828 C18.007531,30.866531 18.3284276,30.3104621 18.5825655,29.6861172 C18.8367034,29.0610138 19.041531,28.4548759 19.1985655,27.8699793 L20.0762897,28.0452207 C19.8441517,29.3735655 19.4413241,30.4379103 18.8761517,31.2382552 C18.3094621,32.0386 17.6646345,32.6538414 16.9431862,33.0832207 C16.2194621,33.5118414 15.4502207,33.7955655 14.6293931,33.9321172 C13.8078069,34.068669 13.0264276,34.1377034 12.2867724,34.1377034 C10.2551862,34.1377034 8.68332414,33.902531 7.57042759,33.4352207 C6.45753103,32.9656345 5.63746207,32.3799793 5.11022069,31.6767379 C4.58222069,30.9734966 4.27953103,30.2118414 4.2013931,29.3917724 C4.12325517,28.5724621 4.08532414,27.8100483 4.08532414,27.1075655 L4.08532414,9.06528966 L0.159462069,9.06528966 L0.159462069,8.24446207 L4.08532414,8.24446207 L4.08532414,0.6886" id="Fill-15" fill="#808080" mask="url(#mask-4)"></path>
                    </g>
                    <polygon id="Fill-18" fill="#E1BEBE" points="41.1666276 10.6214483 35.9776621 5.43248276 41.1666276 0.242758621 46.3563517 5.43248276"></polygon>
                    <polygon id="Fill-20" fill="#E1BEBE" points="51.5450897 10.6214483 46.3561241 5.43248276 51.5450897 0.242758621 56.7340552 5.43248276"></polygon>
                </g>
            </g>
        </g>
    </g>
</svg>