<!-- Generated by IcoMoon.io -->
<svg version="1.1" xmlns="http://www.w3.org/2000/svg" width="34" height="32" viewBox="0 0 34 32">
<title>search</title>
<path d="M14.038 4v0c5.529 0 10.027 4.486 10.027 10s-4.498 10-10.027 10c-5.529 0-10.027-4.486-10.027-10s4.498-10 10.027-10zM25.264 22.396c1.765-2.341 2.812-5.249 2.812-8.397 0-7.72-6.299-14-14.038-14-7.741 0-14.038 6.28-14.038 14s6.297 14 14.038 14c3.156 0 6.072-1.044 8.419-2.805 0.057 0.076 0.121 0.15 0.19 0.219l6.016 6c0.391 0.39 0.904 0.586 1.418 0.586s1.027-0.196 1.418-0.586c0.784-0.782 0.784-2.046 0-2.828l-6.016-6c-0.070-0.069-0.143-0.133-0.22-0.19z"></path>
</svg>
