<svg aria-hidden="true" style="position: absolute; width: 0; height: 0; overflow: hidden;" version="1.1" xmlns="http://www.w3.org/2000/svg" xmlns:xlink="http://www.w3.org/1999/xlink">
<defs>
<symbol id="icon-minus" viewBox="0 0 32 32">
<title>minus</title>
<path d="M0 14.476h32v3.048h-32v-3.048z"></path>
</symbol>
<symbol id="icon-plus" viewBox="0 0 32 32">
<title>plus</title>
<path d="M32 14.476h-14.476v-14.476h-3.048v14.476h-14.476v3.048h14.476v14.476h3.048v-14.476h14.476z"></path>
</symbol>
<symbol id="icon-whatsapp" viewBox="0 0 32 32">
<title>whatsapp</title>
<path d="M24.224 19.178c-0.097-0.159-0.353-0.255-0.738-0.446s-2.279-1.116-2.631-1.242c-0.353-0.127-0.61-0.192-0.866 0.191s-0.994 1.242-1.22 1.497c-0.225 0.256-0.449 0.288-0.834 0.096s-1.625-0.595-3.096-1.896c-1.145-1.013-1.918-2.262-2.142-2.645s-0.023-0.589 0.169-0.779c0.174-0.171 0.385-0.446 0.578-0.669s0.257-0.382 0.385-0.637c0.129-0.255 0.065-0.477-0.032-0.669s-0.867-2.071-1.188-2.837c-0.321-0.764-0.641-0.637-0.866-0.637s-0.481-0.032-0.738-0.032-0.674 0.096-1.027 0.477c-0.353 0.383-1.347 1.307-1.347 3.187s1.379 3.697 1.572 3.952c0.192 0.254 2.663 4.238 6.578 5.768s3.915 1.019 4.621 0.955c0.705-0.064 2.278-0.924 2.6-1.816 0.32-0.893 0.32-1.658 0.224-1.817zM16.291 2.482c-7.283 0-13.207 5.879-13.207 13.105 0 2.868 0.935 5.523 2.516 7.684l-1.65 4.867 5.076-1.613c2.085 1.369 4.583 2.168 7.266 2.168 7.282 0 13.208-5.879 13.208-13.105s-5.925-13.106-13.208-13.106zM32 15.588c0 8.609-7.033 15.588-15.709 15.588-2.755 0-5.342-0.704-7.594-1.94l-8.697 2.764 2.836-8.363c-1.43-2.349-2.254-5.104-2.254-8.049 0-8.609 7.033-15.588 15.71-15.588 8.677 0 15.709 6.979 15.709 15.588z"></path>
</symbol>
<symbol id="icon-close" viewBox="0 0 32 32">
<title>close</title>
<path d="M20.603 16.511c-0.292-0.292-0.292-0.731 0-1.023l10.959-10.959c0.292-0.292 0.438-0.731 0.438-1.023s-0.146-0.731-0.438-1.023l-2.046-2.046c-0.292-0.292-0.731-0.438-1.023-0.438-0.438 0-0.731 0.146-1.023 0.438l-10.959 10.959c-0.292 0.292-0.731 0.292-1.023 0l-10.959-10.959c-0.292-0.292-0.731-0.438-1.023-0.438s-0.731 0.146-1.023 0.438l-2.046 2.046c-0.292 0.292-0.438 0.731-0.438 1.023s0.146 0.731 0.438 1.023l10.959 10.959c0.292 0.292 0.292 0.731 0 1.023l-10.959 10.959c-0.292 0.292-0.438 0.731-0.438 1.023s0.146 0.731 0.438 1.023l2.046 2.046c0.292 0.292 0.731 0.438 1.023 0.438s0.731-0.146 1.023-0.438l10.959-10.959c0.292-0.292 0.731-0.292 1.023 0l10.959 10.959c0.292 0.292 0.731 0.438 1.023 0.438s0.731-0.146 1.023-0.438l2.046-2.046c0.292-0.292 0.438-0.731 0.438-1.023s-0.146-0.731-0.438-1.023l-10.959-10.959z"></path>
</symbol>
<symbol id="icon-arrow-down" viewBox="0 0 32 32">
<title>arrow-down</title>
<path d="M31.68 8.593l-1.603-1.603c-0.214-0.214-0.46-0.321-0.738-0.321s-0.523 0.107-0.737 0.321l-12.602 12.601-12.601-12.601c-0.214-0.214-0.46-0.321-0.738-0.321s-0.524 0.107-0.738 0.321l-1.603 1.603c-0.214 0.214-0.321 0.46-0.321 0.738s0.107 0.524 0.321 0.737l14.942 14.942c0.214 0.214 0.46 0.321 0.738 0.321s0.523-0.107 0.737-0.321l14.943-14.942c0.214-0.214 0.32-0.46 0.32-0.737s-0.106-0.524-0.32-0.738z"></path>
</symbol>
<symbol id="icon-arrow-right" viewBox="0 0 32 32">
<title>arrow-right</title>
<path d="M24.889 14.751l-14.24-14.24c-0.329-0.33-0.769-0.511-1.238-0.511s-0.908 0.182-1.238 0.511l-1.049 1.048c-0.682 0.683-0.682 1.794 0 2.476l11.958 11.958-11.971 11.971c-0.329 0.33-0.511 0.769-0.511 1.238s0.182 0.908 0.511 1.238l1.049 1.048c0.33 0.33 0.769 0.511 1.238 0.511s0.908-0.182 1.238-0.511l14.254-14.253c0.33-0.331 0.511-0.772 0.51-1.242 0.001-0.471-0.18-0.912-0.51-1.243z"></path>
</symbol>
<symbol id="icon-gplus" viewBox="0 0 32 32">
<title>gplus</title>
<path d="M10 6.8c-1.6 0-2.6 1.6-2.4 3.6 0.2 2.2 1.8 3.8 3.4 4 1.6 0 2.6-1.6 2.4-3.8-0.2-2-1.8-3.8-3.4-3.8v0z"></path>
<path d="M10.8 18.6c-2.4 0-4.6 1.4-4.6 3.2s1.8 3.4 4.2 3.4c3.4 0 4.6-1.4 4.6-3.2v-0.6c-0.2-1-1.2-1.6-2.6-2.4-0.4-0.4-1-0.4-1.6-0.4v0z"></path>
<path d="M0 0v32h32v-32h-32zM15.8 10.6c0 1.4-0.8 2.4-1.8 3.2s-1.2 1.2-1.2 1.8c0 0.6 1 1.6 1.6 2 1.6 1.2 2.2 2.2 2.2 4 0 2.2-2.2 4.6-6.2 4.6-3.4 0-6.4-1.4-6.4-3.6 0-2.4 2.6-4.6 6.2-4.6h1c-0.4-0.6-0.8-1.2-0.8-1.8 0-0.4 0.2-0.8 0.4-1.2h-0.6c-2.8 0-4.8-2-4.8-4.6 0-2.4 2.6-4.6 5.4-4.6h6.2l-1.4 1.2h-2c1.4 0.4 2.2 2 2.2 3.6zM28 11h-4.2v4h-1v-4h-4v-1h4v-4h1v4h4.2v1z"></path>
</symbol>
<symbol id="icon-email" viewBox="0 0 48 32">
<title>email</title>
<path d="M0 2.673v26.677l13.338-13.338z"></path>
<path d="M2.65 0l16.887 16.887c2.133 2.133 5.852 2.133 7.985 0l16.887-16.887h-41.758z"></path>
<path d="M30.184 19.548c-1.775 1.777-4.139 2.758-6.654 2.758s-4.879-0.981-6.654-2.758l-0.875-0.875-13.327 13.327h41.713l-13.327-13.327-0.875 0.875z"></path>
<path d="M33.72 16.011l13.338 13.338v-26.677z"></path>
</symbol>
<symbol id="icon-facebook" viewBox="0 0 32 32">
<title>facebook</title>
<path d="M22.4 17.6v11.2h-4.8v-11.2h-3.2v-4.8h3.2v-4c0-3.040 2.56-5.6 5.6-5.6h4v4.8h-3.2c-0.96 0-1.6 0.64-1.6 1.6v3.2h4.8v4.8h-4.8zM28.8 0h-28.8v32h32v-32h-3.2z"></path>
</symbol>
<symbol id="icon-twitter" viewBox="0 0 37 32">
<title>twitter</title>
<path d="M37.333 4.921c-1.374 0.609-2.848 1.022-4.398 1.206 1.582-0.947 2.792-2.45 3.366-4.234-1.484 0.877-3.121 1.514-4.866 1.859-1.397-1.491-3.385-2.419-5.59-2.419-4.23 0-7.659 3.429-7.659 7.657 0 0.6 0.068 1.185 0.198 1.745-6.364-0.32-12.007-3.369-15.784-8.002-0.66 1.129-1.036 2.445-1.036 3.849 0 2.657 1.353 5.002 3.406 6.373-1.255-0.042-2.436-0.387-3.469-0.961v0.096c0 3.709 2.641 6.805 6.143 7.51-0.642 0.173-1.318 0.268-2.018 0.268-0.495 0-0.973-0.049-1.442-0.142 0.975 3.044 3.803 5.258 7.153 5.319-2.62 2.053-5.923 3.273-9.511 3.273-0.618 0-1.227-0.037-1.827-0.105 3.39 2.177 7.414 3.446 11.739 3.446 14.088 0 21.789-11.669 21.789-21.789l-0.026-0.991c1.505-1.073 2.806-2.422 3.831-3.957z"></path>
</symbol>
<symbol id="icon-instagram" viewBox="0 0 32 32">
<title>instagram</title>
<path d="M28.73 22.428c0 3.481-2.822 6.303-6.303 6.303h-12.911c-3.481 0-6.303-2.822-6.303-6.303v-12.911c0-3.481 2.822-6.303 6.303-6.303h12.911c3.481 0 6.303 2.822 6.303 6.303v12.911zM22.428 0h-12.911c-5.247 0-9.516 4.269-9.516 9.516v12.911c0 5.247 4.269 9.516 9.516 9.516h12.911c5.247 0 9.516-4.269 9.516-9.516v-12.911c-0-5.247-4.269-9.516-9.516-9.516v0z"></path>
<path d="M15.972 21.020c-2.788 0-5.048-2.26-5.048-5.048s2.26-5.048 5.048-5.048c2.788 0 5.048 2.26 5.048 5.048s-2.26 5.048-5.048 5.048zM15.972 7.71c-4.556 0-8.262 3.706-8.262 8.262s3.706 8.262 8.262 8.262c4.556 0 8.262-3.706 8.262-8.262s-3.706-8.262-8.262-8.262z"></path>
<path d="M26.229 7.772c0 1.093-0.886 1.98-1.98 1.98s-1.98-0.886-1.98-1.98c0-1.093 0.886-1.98 1.98-1.98s1.98 0.886 1.98 1.98z"></path>
</symbol>
<symbol id="icon-bag" viewBox="0 0 32 32">
<title>Shopping Cart</title>
<path d="M10.517 13.417c0.738 0 1.337-0.597 1.337-1.333v-5.2c0-2.325 1.897-4.217 4.228-4.217s4.228 1.892 4.228 4.217v5.2c0 0.736 0.599 1.333 1.337 1.333s1.337-0.597 1.337-1.333v-5.2c0-3.795-3.096-6.883-6.902-6.883s-6.902 3.088-6.902 6.883v5.2c-0.001 0.736 0.598 1.333 1.336 1.333v0z"></path>
<path d="M31.419 10.421h-7.097v1.663c0 1.471-1.199 2.667-2.674 2.667s-2.674-1.196-2.674-2.667v-1.663h-5.782v1.663c0 1.471-1.199 2.667-2.674 2.667s-2.674-1.196-2.674-2.667v-1.663h-7.176c-0.369 0-0.597 0.29-0.509 0.647l4.677 18.999c0.283 1.068 1.409 1.933 2.517 1.933h17.381c1.108 0 2.234-0.866 2.518-1.933l4.677-18.999c0.087-0.358-0.14-0.647-0.51-0.647v0z"></path>
</symbol>
<symbol id="icon-heart" viewBox="0 0 34 32">
<title>My Wish List</title>
<path d="M16.842 30.989l-2.358-2.358c-8.758-7.747-14.484-12.969-14.484-19.369 0-5.221 4.042-9.263 9.263-9.263 2.863 0 5.726 1.347 7.579 3.537 1.853-2.19 4.716-3.537 7.579-3.537 5.221 0 9.263 4.042 9.263 9.263 0 6.4-5.726 11.621-14.484 19.369l-2.358 2.358z"></path>
</symbol>
<symbol id="icon-search" viewBox="0 0 34 32">
<title>Search</title>
<path d="M14.038 4v0c5.529 0 10.027 4.486 10.027 10s-4.498 10-10.027 10c-5.529 0-10.027-4.486-10.027-10s4.498-10 10.027-10zM25.264 22.396c1.765-2.341 2.812-5.249 2.812-8.397 0-7.72-6.299-14-14.038-14-7.741 0-14.038 6.28-14.038 14s6.297 14 14.038 14c3.156 0 6.072-1.044 8.419-2.805 0.057 0.076 0.121 0.15 0.19 0.219l6.016 6c0.391 0.39 0.904 0.586 1.418 0.586s1.027-0.196 1.418-0.586c0.784-0.782 0.784-2.046 0-2.828l-6.016-6c-0.070-0.069-0.143-0.133-0.22-0.19z"></path>
</symbol>
<symbol id="icon-person" viewBox="0 0 29 32">
<title>My Account</title>
<path d="M27.429 29.719c0 1.26-1.021 2.281-2.281 2.281h-22.859c-0.607 0.001-1.189-0.24-1.619-0.669s-0.67-1.012-0.669-1.619v-2.283c0-6.018 9.143-9.143 9.143-9.143s0.523-0.935 0-2.286c-1.922-1.417-2.158-3.634-2.286-9.143 0.395-5.515 4.267-6.857 6.857-6.857s6.462 1.339 6.857 6.857c-0.128 5.509-0.363 7.726-2.286 9.143-0.523 1.349 0 2.286 0 2.286s9.143 3.125 9.143 9.143v2.29z"></path>
</symbol>
</defs>
</svg>
